{"title":"- Indigo Augustine - Revenge Times 2","uid":10755390,"size":691489465,"categoryP":"porn","categoryS":"hd___movies","magnet":"?xt=urn:btih:fd578ed7b0deb74185b148c3ffe2db288298ef70&amp;dn=-+Indigo+Augustine+-+Revenge+Times+2&amp;tr=udp%3A%2F%2Ftracker.openbittorrent.com%3A80&amp;tr=udp%3A%2F%2Fopen.demonii.com%3A1337&amp;tr=udp%3A%2F%2Ftracker.coppersurfer.tk%3A6969&amp;tr=udp%3A%2F%2Fexodus.desync.com%3A6969","seeders":0,"leechers":1,"uploader":"bagoly82","files":1,"time":1407927757,"description":"[URL=http://imgdone.com/viewer.php?file=62761395810902997753.jpg][IMG]http://imgdone.com/images/62761395810902997753_thumb.jpg[/IMG][/URL]\n\n\nComplete name                            : Indigo Augustine - Revenge Times 2.mp4\nFormat                                   : MPEG-4\nFormat profile                           : Base Media\nCodec ID                                 : isom\nFile size                                : 659 MiB\nDuration                                 : 32mn 18s\nOverall bit rate                         : 2 854 Kbps\nWriting application                      : Lavf54.3.100\n\nVideo\nID                                       : 1\nFormat                                   : AVC\nFormat/Info                              : Advanced Video Codec\nFormat profile                           : &lt;a class=&quot;__cf_email__&quot; href=&quot;/cdn-cgi/l/email-protection&quot; data-cfemail=&quot;1a52737d725a5629342b&quot;&gt;[email&amp;#160;protected]&lt;/a&gt;&lt;script cf-hash='f9e31' type=&quot;text/javascript&quot;&gt;\n/* &lt;![CDATA[ */!function(){try{var t=&quot;currentScript&quot;in document?document.currentScript:function(){for(var t=document.getElementsByTagName(&quot;script&quot;),e=t.length;e--;)if(t[e].getAttribute(&quot;cf-hash&quot;))return t[e]}();if(t&amp;&amp;t.previousSibling){var e,r,n,i,c=t.previousSibling,a=c.getAttribute(&quot;data-cfemail&quot;);if(a){for(e=&quot;&quot;,r=parseInt(a.substr(0,2),16),n=2;a.length-n;n+=2)i=parseInt(a.substr(n,2),16)^r,e+=String.fromCharCode(i);e=document.createTextNode(e),c.parentNode.replaceChild(e,c)}}}catch(u){}}();/* ]]&gt; */&lt;/script&gt;\nFormat settings, CABAC                   : Yes\nFormat settings, ReFrames                : 5 frames\nCodec ID                                 : avc1\nCodec ID/Info                            : Advanced Video Coding\nDuration                                 : 32mn 17s\nBit rate                                 : 2 600 Kbps\nWidth                                    : 1 280 pixels\nHeight                                   : 720 pixels\nDisplay aspect ratio                     : 16:9\nFrame rate mode                          : Constant\nFrame rate                               : 29.970 fps\nColor space                              : YUV\nChroma subsampling                       : 4:2:0\nBit depth                                : 8 bits\nScan type                                : Progressive\nBits/(Pixel*Frame)                       : 0.094\nStream size                              : 600 MiB (91%)\nWriting library                          : x264 core 120 r2164 da19765\nEncoding settings                        : cabac=1 / ref=5 / deblock=1:0:0 / analyse=0x3:0x113 / me=umh / subme=8 / psy=1 / psy_rd=1.00:0.00 / mixed_ref=1 / me_range=16 / chroma_me=1 / trellis=1 / 8x8dct=1 / cqm=0 / deadzone=21,11 / fast_pskip=1 / chroma_qp_offset=-2 / threads=36 / sliced_threads=0 / nr=0 / decimate=1 / interlaced=0 / bluray_compat=0 / constrained_intra=0 / bframes=3 / b_pyramid=2 / b_adapt=2 / b_bias=0 / direct=3 / weightb=1 / open_gop=0 / weightp=2 / keyint=60 / keyint_min=6 / scenecut=40 / intra_refresh=0 / rc_lookahead=50 / rc=abr / mbtree=1 / bitrate=2600 / ratetol=1.0 / qcomp=0.60 / qpmin=0 / qpmax=69 / qpstep=4 / ip_ratio=1.40 / aq=1:1.00\nTagged date                              : UTC 2012-06-06 01:41:51\n\nAudio\nID                                       : 2\nFormat                                   : AAC\nFormat/Info                              : Advanced Audio Codec\nFormat profile                           : LC\nCodec ID                                 : 40\nDuration                                 : 32mn 18s\nBit rate mode                            : Constant\nBit rate                                 : 128 Kbps\nChannel(s)                               : 2 channels\nChannel positions                        : Front: L R\nSampling rate                            : 48.0 KHz\nCompression mode                         : Lossy\nStream size                              : 29.6 MiB (4%)\nTagged date                              : UTC 2012-06-06 01:41:51\n\nOther #1\nID                                       : 65536\nType                                     : Hint\nFormat                                   : RTP\nCodec ID                                 : rtp \nDuration                                 : 32mn 17s\nEncoded date                             : UTC 2012-06-06 01:41:37\nTagged date                              : UTC 2012-06-06 01:41:51\n\nOther #2\nID                                       : 65537\nType                                     : Hint\nFormat                                   : RTP\nCodec ID                                 : rtp \nDuration                                 : 32mn 18s\nEncoded date                             : UTC 2012-06-06 01:41:50\nTagged date                              : UTC 2012-06-06 01:41:51\nBit rate mode                            : VBR\n","torrent":{"xt":"urn:btih:fd578ed7b0deb74185b148c3ffe2db288298ef70","amp;dn":"-+Indigo+Augustine+-+Revenge+Times+2","amp;tr":["udp%3A%2F%2Ftracker.openbittorrent.com%3A80","udp%3A%2F%2Fopen.demonii.com%3A1337","udp%3A%2F%2Ftracker.coppersurfer.tk%3A6969","udp%3A%2F%2Fexodus.desync.com%3A6969"],"infoHash":"fd578ed7b0deb74185b148c3ffe2db288298ef70","infoHashBuffer":{"type":"Buffer","data":[253,87,142,215,176,222,183,65,133,177,72,195,255,226,219,40,130,152,239,112]},"announce":[],"urlList":[]}}